<svg width="58" height="58" viewBox="0 0 58 58" fill="none" xmlns="http://www.w3.org/2000/svg">
<path d="M8.46001 17.2581C6.76639 13.9305 9.20415 10 12.9617 10C14.8647 10 16.6056 11.0628 17.4633 12.7481L22.4009 22.4496C23.1874 23.9949 23.5972 25.7019 23.5972 27.433L23.5972 35.7906C23.5972 41.9814 18.4832 47 12.2431 47C6.06385 47 0.999759 42.0304 0.999759 35.9C0.999758 29.7696 6.11924 24.8 12.2985 24.8L8.46001 17.2581ZM35.8626 17.2581C34.169 13.9304 36.6067 10 40.3643 10C42.2672 10 44.0082 11.0628 44.8659 12.748L49.8035 22.4496C50.59 23.9949 50.9998 25.7019 50.9998 27.433L50.9998 35.7906C50.9998 41.9814 45.8858 47 39.6457 47C33.4664 47 28.4024 42.0304 28.4024 35.9C28.4024 29.7696 33.5218 24.8 39.7011 24.8L35.8626 17.2581Z" fill="#478DFF"/>
</svg>
