<svg width="1440" height="824" viewBox="0 0 1440 824" fill="none" xmlns="http://www.w3.org/2000/svg">
<mask id="mask0" style="mask-type:alpha" maskUnits="userSpaceOnUse" x="0" y="0" width="1440" height="979">
<rect width="1440" height="979" fill="url(#paint0_linear)"/>
</mask>
<g mask="url(#mask0)">
<path d="M-3.99986 -8.42334L-3.99982 823.993L1440 823.993L1440 -8.42339L-3.99986 -8.42334Z" fill="url(#paint1_linear)"/>
<path d="M1438.34 -288.694L1204.25 -288.694C1182.26 -244.732 1170.11 -196.417 1170.11 -145.702C1170.11 7.30928 1280.77 138.525 1438.34 194.238L1438.34 -288.694Z" fill="url(#paint2_linear)"/>
<path d="M15.9555 404.001C295.562 404.001 522.286 159.681 523 -141.999L-116 -141.999L-116 385.246C-73.9138 397.456 -29.685 404.001 15.9555 404.001Z" fill="url(#paint3_linear)"/>
<path opacity="0.5" d="M39.2344 167.797C39.2344 165.995 37.4955 164.534 35.3504 164.534C33.2053 164.534 31.4664 165.995 31.4664 167.797C31.4664 169.599 33.2053 171.061 35.3504 171.061C37.4955 171.061 39.2344 169.599 39.2344 167.797Z" fill="white"/>
<path d="M772.765 13.8738C772.765 12.0715 771.026 10.6104 768.881 10.6104C766.736 10.6104 764.997 12.0715 764.997 13.8738C764.997 15.6761 766.736 17.1372 768.881 17.1372C771.026 17.1372 772.765 15.6761 772.765 13.8738Z" fill="white" fill-opacity="0.5"/>
<path opacity="0.3" d="M472.648 65.8035C472.648 64.0012 470.909 62.5401 468.764 62.5401C466.619 62.5401 464.88 64.0012 464.88 65.8035C464.88 67.6058 466.619 69.0669 468.764 69.0669C470.909 69.0669 472.648 67.6058 472.648 65.8035Z" fill="white"/>
<path opacity="0.3" d="M896.947 545.873C896.947 544.071 895.208 542.609 893.063 542.609C890.918 542.609 889.179 544.071 889.179 545.873C889.179 547.675 890.918 549.136 893.063 549.136C895.208 549.136 896.947 547.675 896.947 545.873Z" fill="white"/>
<path opacity="0.3" d="M1118.54 472.771C1118.54 470.968 1116.8 469.507 1114.66 469.507C1112.51 469.507 1110.77 470.968 1110.77 472.771C1110.77 474.573 1112.51 476.034 1114.66 476.034C1116.8 476.034 1118.54 474.573 1118.54 472.771Z" fill="white"/>
<path opacity="0.3" d="M351.854 17.9588C351.854 16.1565 350.115 14.6954 347.97 14.6954C345.824 14.6954 344.086 16.1565 344.086 17.9588C344.086 19.7611 345.824 21.2222 347.97 21.2222C350.115 21.2222 351.854 19.7611 351.854 17.9588Z" fill="white"/>
<g style="mix-blend-mode:lighten" opacity="0.5">
<path d="M0.00012207 0H1440V859.5H0.00012207V0Z" fill="url(#paint4_linear)"/>
</g>
<g opacity="0.5">
<path d="M705 102C705 101.448 704.552 101 704 101C703.448 101 703 101.448 703 102C703 102.552 703.448 103 704 103C704.552 103 705 102.552 705 102Z" fill="white"/>
<path d="M1268 102C1268 101.448 1267.55 101 1267 101C1266.45 101 1266 101.448 1266 102C1266 102.552 1266.45 103 1267 103C1267.55 103 1268 102.552 1268 102Z" fill="white"/>
<path d="M686 80C686 79.4477 685.552 79 685 79C684.448 79 684 79.4477 684 80C684 80.5523 684.448 81 685 81C685.552 81 686 80.5523 686 80Z" fill="white"/>
<path d="M1249 80C1249 79.4477 1248.55 79 1248 79C1247.45 79 1247 79.4477 1247 80C1247 80.5523 1247.45 81 1248 81C1248.55 81 1249 80.5523 1249 80Z" fill="white"/>
<path d="M88 131.5C88 130.672 87.5523 130 87 130C86.4477 130 86 130.672 86 131.5C86 132.328 86.4477 133 87 133C87.5523 133 88 132.328 88 131.5Z" fill="#415783"/>
<path d="M651 131.5C651 130.672 650.552 130 650 130C649.448 130 649 130.672 649 131.5C649 132.328 649.448 133 650 133C650.552 133 651 132.328 651 131.5Z" fill="#415783"/>
<path d="M1214 131.5C1214 130.672 1213.55 130 1213 130C1212.45 130 1212 130.672 1212 131.5C1212 132.328 1212.45 133 1213 133C1213.55 133 1214 132.328 1214 131.5Z" fill="#415783"/>
<path d="M231 129C231 128.448 230.552 128 230 128C229.448 128 229 128.448 229 129C229 129.552 229.448 130 230 130C230.552 130 231 129.552 231 129Z" fill="white"/>
<path d="M794 129C794 128.448 793.552 128 793 128C792.448 128 792 128.448 792 129C792 129.552 792.448 130 793 130C793.552 130 794 129.552 794 129Z" fill="white"/>
<path d="M1357 129C1357 128.448 1356.55 128 1356 128C1355.45 128 1355 128.448 1355 129C1355 129.552 1355.45 130 1356 130C1356.55 130 1357 129.552 1357 129Z" fill="white"/>
<path d="M240 173C240 172.448 239.328 172 238.5 172C237.672 172 237 172.448 237 173C237 173.552 237.672 174 238.5 174C239.328 174 240 173.552 240 173Z" fill="white"/>
<path d="M803 173C803 172.448 802.328 172 801.5 172C800.672 172 800 172.448 800 173C800 173.552 800.672 174 801.5 174C802.328 174 803 173.552 803 173Z" fill="white"/>
<path d="M1366 173C1366 172.448 1365.33 172 1364.5 172C1363.67 172 1363 172.448 1363 173C1363 173.552 1363.67 174 1364.5 174C1365.33 174 1366 173.552 1366 173Z" fill="white"/>
<path d="M223 161.5C223 160.672 222.552 160 222 160C221.448 160 221 160.672 221 161.5C221 162.328 221.448 163 222 163C222.552 163 223 162.328 223 161.5Z" fill="#415783"/>
<path d="M786 161.5C786 160.672 785.552 160 785 160C784.448 160 784 160.672 784 161.5C784 162.328 784.448 163 785 163C785.552 163 786 162.328 786 161.5Z" fill="#415783"/>
<path d="M1349 161.5C1349 160.672 1348.55 160 1348 160C1347.45 160 1347 160.672 1347 161.5C1347 162.328 1347.45 163 1348 163C1348.55 163 1349 162.328 1349 161.5Z" fill="#415783"/>
<path d="M351 45.5C351 44.6716 350.552 44 350 44C349.448 44 349 44.6716 349 45.5C349 46.3284 349.448 47 350 47C350.552 47 351 46.3284 351 45.5Z" fill="#415783"/>
<path d="M914 45.5C914 44.6716 913.552 44 913 44C912.448 44 912 44.6716 912 45.5C912 46.3284 912.448 47 913 47C913.552 47 914 46.3284 914 45.5Z" fill="#415783"/>
<path d="M237 17.5C237 16.6716 236.552 16 236 16C235.448 16 235 16.6716 235 17.5C235 18.3284 235.448 19 236 19C236.552 19 237 18.3284 237 17.5Z" fill="#1A3673"/>
<path d="M800 17.5C800 16.6716 799.552 16 799 16C798.448 16 798 16.6716 798 17.5C798 18.3284 798.448 19 799 19C799.552 19 800 18.3284 800 17.5Z" fill="#1A3673"/>
<path d="M1363 17.5C1363 16.6716 1362.55 16 1362 16C1361.45 16 1361 16.6716 1361 17.5C1361 18.3284 1361.45 19 1362 19C1362.55 19 1363 18.3284 1363 17.5Z" fill="#1A3673"/>
<path d="M393 87C393 86.4477 392.552 86 392 86C391.448 86 391 86.4477 391 87C391 87.5523 391.448 88 392 88C392.552 88 393 87.5523 393 87Z" fill="#1A3673"/>
<path d="M956 87C956 86.4477 955.552 86 955 86C954.448 86 954 86.4477 954 87C954 87.5523 954.448 88 955 88C955.552 88 956 87.5523 956 87Z" fill="#1A3673"/>
<path d="M336 182.5C336 181.672 335.552 181 335 181C334.448 181 334 181.672 334 182.5C334 183.328 334.448 184 335 184C335.552 184 336 183.328 336 182.5Z" fill="white"/>
<path d="M899 182.5C899 181.672 898.552 181 898 181C897.448 181 897 181.672 897 182.5C897 183.328 897.448 184 898 184C898.552 184 899 183.328 899 182.5Z" fill="white"/>
<path d="M391 184C391 183.448 390.328 183 389.5 183C388.672 183 388 183.448 388 184C388 184.552 388.672 185 389.5 185C390.328 185 391 184.552 391 184Z" fill="white"/>
<path d="M954 184C954 183.448 953.328 183 952.5 183C951.672 183 951 183.448 951 184C951 184.552 951.672 185 952.5 185C953.328 185 954 184.552 954 184Z" fill="white"/>
<path d="M840 85C840 84.4477 839.328 84 838.5 84C837.672 84 837 84.4477 837 85C837 85.5523 837.672 86 838.5 86C839.328 86 840 85.5523 840 85Z" fill="white"/>
<path d="M1403 85C1403 84.4477 1402.33 84 1401.5 84C1400.67 84 1400 84.4477 1400 85C1400 85.5523 1400.67 86 1401.5 86C1402.33 86 1403 85.5523 1403 85Z" fill="white"/>
<path d="M127 199C127 198.448 126.328 198 125.5 198C124.672 198 124 198.448 124 199C124 199.552 124.672 200 125.5 200C126.328 200 127 199.552 127 199Z" fill="white"/>
<path d="M690 199C690 198.448 689.328 198 688.5 198C687.672 198 687 198.448 687 199C687 199.552 687.672 200 688.5 200C689.328 200 690 199.552 690 199Z" fill="white"/>
<path d="M1253 199C1253 198.448 1252.33 198 1251.5 198C1250.67 198 1250 198.448 1250 199C1250 199.552 1250.67 200 1251.5 200C1252.33 200 1253 199.552 1253 199Z" fill="white"/>
<path d="M336 9C336 8.44771 335.552 8 335 8C334.448 8 334 8.44771 334 9C334 9.55229 334.448 10 335 10C335.552 10 336 9.55229 336 9Z" fill="white"/>
<path d="M899 9C899 8.44771 898.552 8 898 8C897.448 8 897 8.44771 897 9C897 9.55229 897.448 10 898 10C898.552 10 899 9.55229 899 9Z" fill="white"/>
<path d="M170 49C170 48.4477 169.328 48 168.5 48C167.672 48 167 48.4477 167 49C167 49.5523 167.672 50 168.5 50C169.328 50 170 49.5523 170 49Z" fill="#1A3673"/>
<path d="M733 49C733 48.4477 732.328 48 731.5 48C730.672 48 730 48.4477 730 49C730 49.5523 730.672 50 731.5 50C732.328 50 733 49.5523 733 49Z" fill="#1A3673"/>
<path d="M1296 49C1296 48.4477 1295.33 48 1294.5 48C1293.67 48 1293 48.4477 1293 49C1293 49.5523 1293.67 50 1294.5 50C1295.33 50 1296 49.5523 1296 49Z" fill="#1A3673"/>
<path d="M108 1C108 0.447714 107.552 -6.78526e-08 107 -4.37115e-08C106.448 -1.95703e-08 106 0.447714 106 1C106 1.55229 106.448 2 107 2C107.552 2 108 1.55229 108 1Z" fill="#415783"/>
<path d="M671 1C671 0.447714 670.552 -6.78526e-08 670 -4.37115e-08C669.448 -1.95703e-08 669 0.447714 669 1C669 1.55229 669.448 2 670 2C670.552 2 671 1.55229 671 1Z" fill="#415783"/>
<path d="M1234 1C1234 0.447714 1233.55 -6.78526e-08 1233 -4.37115e-08C1232.45 -1.95703e-08 1232 0.447714 1232 1C1232 1.55229 1232.45 2 1233 2C1233.55 2 1234 1.55229 1234 1Z" fill="#415783"/>
<path d="M388 127C388 126.448 387.552 126 387 126C386.448 126 386 126.448 386 127C386 127.552 386.448 128 387 128C387.552 128 388 127.552 388 127Z" fill="white"/>
<path d="M951 127C951 126.448 950.552 126 950 126C949.448 126 949 126.448 949 127C949 127.552 949.448 128 950 128C950.552 128 951 127.552 951 127Z" fill="white"/>
<path d="M376 153.5C376 152.672 375.328 152 374.5 152C373.672 152 373 152.672 373 153.5C373 154.328 373.672 155 374.5 155C375.328 155 376 154.328 376 153.5Z" fill="#415783"/>
<path d="M939 153.5C939 152.672 938.328 152 937.5 152C936.672 152 936 152.672 936 153.5C936 154.328 936.672 155 937.5 155C938.328 155 939 154.328 939 153.5Z" fill="#415783"/>
<path d="M36 43C36 42.4477 35.5523 42 35 42C34.4477 42 34 42.4477 34 43C34 43.5523 34.4477 44 35 44C35.5523 44 36 43.5523 36 43Z" fill="white"/>
<path d="M599 43C599 42.4477 598.552 42 598 42C597.448 42 597 42.4477 597 43C597 43.5523 597.448 44 598 44C598.552 44 599 43.5523 599 43Z" fill="white"/>
<path d="M558 25.5C558 24.6716 557.552 24 557 24C556.448 24 556 24.6716 556 25.5C556 26.3284 556.448 27 557 27C557.552 27 558 26.3284 558 25.5Z" fill="#1A3673"/>
<path d="M1121 25.5C1121 24.6716 1120.55 24 1120 24C1119.45 24 1119 24.6716 1119 25.5C1119 26.3284 1119.45 27 1120 27C1120.55 27 1121 26.3284 1121 25.5Z" fill="#1A3673"/>
<path d="M550 138.5C550 137.672 549.552 137 549 137C548.448 137 548 137.672 548 138.5C548 139.328 548.448 140 549 140C549.552 140 550 139.328 550 138.5Z" fill="white"/>
<path d="M1113 138.5C1113 137.672 1112.55 137 1112 137C1111.45 137 1111 137.672 1111 138.5C1111 139.328 1111.45 140 1112 140C1112.55 140 1113 139.328 1113 138.5Z" fill="white"/>
<path d="M17 186C17 185.448 16.5523 185 16 185C15.4477 185 15 185.448 15 186C15 186.552 15.4477 187 16 187C16.5523 187 17 186.552 17 186Z" fill="#0F0F2B"/>
<path d="M580 186C580 185.448 579.552 185 579 185C578.448 185 578 185.448 578 186C578 186.552 578.448 187 579 187C579.552 187 580 186.552 580 186Z" fill="#0F0F2B"/>
<path d="M1143 186C1143 185.448 1142.55 185 1142 185C1141.45 185 1141 185.448 1141 186C1141 186.552 1141.45 187 1142 187C1142.55 187 1143 186.552 1143 186Z" fill="#0F0F2B"/>
</g>
<g opacity="0.5">
<path opacity="0.125" d="M1032.5 1989C1538.67 1989 1949 1574.64 1949 1063.5C1949 552.36 1538.67 138 1032.5 138C526.331 138 116 552.36 116 1063.5C116 1574.64 526.331 1989 1032.5 1989Z" stroke="#00487B" stroke-width="2.4768" stroke-miterlimit="10" stroke-linecap="round" stroke-linejoin="round" stroke-dasharray="1 15"/>
<path opacity="0.25" d="M1032.5 1941C1512.71 1941 1902 1547.91 1902 1063C1902 578.094 1512.71 185 1032.5 185C552.288 185 163 578.094 163 1063C163 1547.91 552.288 1941 1032.5 1941Z" stroke="#00518E" stroke-width="2.855" stroke-miterlimit="10" stroke-linecap="round" stroke-linejoin="round" stroke-dasharray="1 15"/>
<path opacity="0.375" d="M1032.5 1894C1487.31 1894 1856 1522.17 1856 1063.5C1856 604.828 1487.31 233 1032.5 233C577.694 233 209 604.828 209 1063.5C209 1522.17 577.694 1894 1032.5 1894Z" stroke="#005BA1" stroke-width="3.2333" stroke-miterlimit="10" stroke-linecap="round" stroke-linejoin="round" stroke-dasharray="1 15"/>
<path opacity="0.5" d="M1032.5 1847C1460.8 1847 1808 1496.22 1808 1063.5C1808 630.785 1460.8 280 1032.5 280C604.203 280 257 630.785 257 1063.5C257 1496.22 604.203 1847 1032.5 1847Z" stroke="#0065B3" stroke-width="3.6116" stroke-miterlimit="10" stroke-linecap="round" stroke-linejoin="round" stroke-dasharray="1 15"/>
<path opacity="0.625" d="M1032.5 1799C1435.39 1799 1762 1469.48 1762 1063C1762 656.518 1435.39 327 1032.5 327C629.608 327 303 656.518 303 1063C303 1469.48 629.608 1799 1032.5 1799Z" stroke="#006EC6" stroke-width="3.9898" stroke-miterlimit="10" stroke-linecap="round" stroke-linejoin="round" stroke-dasharray="1 15"/>
<path opacity="0.75" d="M1032.5 1752C1408.88 1752 1714 1443.75 1714 1063.5C1714 683.252 1408.88 375 1032.5 375C656.118 375 351 683.252 351 1063.5C351 1443.75 656.118 1752 1032.5 1752Z" stroke="#0078D9" stroke-width="4.3681" stroke-miterlimit="10" stroke-linecap="round" stroke-linejoin="round" stroke-dasharray="1 15"/>
<path opacity="0.875" d="M1032.5 1705C1383.48 1705 1668 1417.79 1668 1063.5C1668 709.209 1383.48 422 1032.5 422C681.523 422 397 709.209 397 1063.5C397 1417.79 681.523 1705 1032.5 1705Z" stroke="#0081EC" stroke-width="4.7464" stroke-miterlimit="10" stroke-linecap="round" stroke-linejoin="round" stroke-dasharray="1 15"/>
<path d="M1032.5 1657C1357.52 1657 1621 1391.06 1621 1063C1621 734.943 1357.52 469 1032.5 469C707.48 469 444 734.943 444 1063C444 1391.06 707.48 1657 1032.5 1657Z" stroke="#008BFF" stroke-width="5.1247" stroke-miterlimit="10" stroke-linecap="round" stroke-linejoin="round" stroke-dasharray="1 15"/>
<path opacity="0.875" d="M1032.5 1598C1325.49 1598 1563 1358.47 1563 1063C1563 767.528 1325.49 528 1032.5 528C739.513 528 502 767.528 502 1063C502 1358.47 739.513 1598 1032.5 1598Z" stroke="#008EF8" stroke-width="4.6195" stroke-miterlimit="10" stroke-linecap="round" stroke-linejoin="round" stroke-dasharray="1 15"/>
<path opacity="0.75" d="M1032.5 1540C1292.9 1540 1504 1326.66 1504 1063.5C1504 800.336 1292.9 587 1032.5 587C772.098 587 561 800.336 561 1063.5C561 1326.66 772.098 1540 1032.5 1540Z" stroke="#0090F1" stroke-width="4.1143" stroke-miterlimit="10" stroke-linecap="round" stroke-linejoin="round" stroke-dasharray="1 15"/>
<path opacity="0.625" d="M1032.5 1481C1261.42 1481 1447 1294.08 1447 1063.5C1447 832.921 1261.42 646 1032.5 646C803.578 646 618 832.921 618 1063.5C618 1294.08 803.578 1481 1032.5 1481Z" stroke="#0093E9" stroke-width="3.609" stroke-miterlimit="10" stroke-linecap="round" stroke-linejoin="round" stroke-dasharray="1 15"/>
<path opacity="0.5" d="M1032.5 1423C1229.39 1423 1389 1262.05 1389 1063.5C1389 864.954 1229.39 704 1032.5 704C835.611 704 676 864.954 676 1063.5C676 1262.05 835.611 1423 1032.5 1423Z" stroke="#0095E2" stroke-width="3.1038" stroke-miterlimit="10" stroke-linecap="round" stroke-linejoin="round" stroke-dasharray="1 15"/>
<path opacity="0.375" d="M1032.5 1364C1197.36 1364 1331 1229.46 1331 1063.5C1331 897.538 1197.36 763 1032.5 763C867.643 763 734 897.538 734 1063.5C734 1229.46 867.643 1364 1032.5 1364Z" stroke="#0098DB" stroke-width="2.5986" stroke-miterlimit="10" stroke-linecap="round" stroke-linejoin="round" stroke-dasharray="1 15"/>
<path opacity="0.25" d="M1202.4 1234.64C1296.24 1139.95 1296.24 986.424 1202.4 891.731C1108.57 797.038 956.433 797.038 862.599 891.731C768.765 986.424 768.765 1139.95 862.599 1234.64C956.433 1329.34 1108.57 1329.34 1202.4 1234.64Z" stroke="#009BD4" stroke-width="2.0934" stroke-miterlimit="10" stroke-linecap="round" stroke-linejoin="round" stroke-dasharray="1 15"/>
<path opacity="0.125" d="M1161.4 1193.27C1232.59 1121.43 1232.59 1004.95 1161.4 933.108C1090.21 861.267 974.789 861.267 903.6 933.108C832.411 1004.95 832.411 1121.43 903.6 1193.27C974.789 1265.11 1090.21 1265.11 1161.4 1193.27Z" stroke="#009DCC" stroke-width="1.5882" stroke-miterlimit="10" stroke-linecap="round" stroke-linejoin="round" stroke-dasharray="1 15"/>
</g>
<path d="M267 896C267 751.297 154.851 634 16.5 634C-121.851 634 -234 751.297 -234 896L267 896Z" fill="url(#paint5_linear)" fill-opacity="0.5"/>
</g>
<defs>
<linearGradient id="paint0_linear" x1="720" y1="0" x2="720" y2="979" gradientUnits="userSpaceOnUse">
<stop stop-color="#21284A"/>
<stop offset="1" stop-color="#181D38"/>
</linearGradient>
<linearGradient id="paint1_linear" x1="693.943" y1="-64.3405" x2="699.209" y2="823.982" gradientUnits="userSpaceOnUse">
<stop stop-color="#241E59"/>
<stop offset="1" stop-color="#0C0C24"/>
</linearGradient>
<linearGradient id="paint2_linear" x1="1388.66" y1="-71.7306" x2="369.247" y2="450.604" gradientUnits="userSpaceOnUse">
<stop stop-color="#2C77E8" stop-opacity="0"/>
<stop offset="1" stop-color="#2C77E8"/>
</linearGradient>
<linearGradient id="paint3_linear" x1="286.007" y1="4.85068" x2="-647.203" y2="200.251" gradientUnits="userSpaceOnUse">
<stop stop-color="#2C77E8" stop-opacity="0"/>
<stop offset="1" stop-color="#2C77E8"/>
</linearGradient>
<linearGradient id="paint4_linear" x1="720" y1="-142.436" x2="720" y2="1249.16" gradientUnits="userSpaceOnUse">
<stop stop-color="#3321A3"/>
<stop offset="1" stop-color="#0F0F65"/>
</linearGradient>
<linearGradient id="paint5_linear" x1="33.0332" y1="803.974" x2="735.501" y2="496.207" gradientUnits="userSpaceOnUse">
<stop stop-color="#2C77E8" stop-opacity="0"/>
<stop offset="1" stop-color="#2C77E8"/>
</linearGradient>
</defs>
</svg>
