<svg width="151" height="51" viewBox="0 0 151 51" fill="none" xmlns="http://www.w3.org/2000/svg">
<path d="M25.7131 0C24.4705 0 21.6957 0.320755 18.8486 9.01912C10.3329 4.92527 8.46465 6.53749 7.53265 7.47021C6.66022 8.3354 4.92388 10.5132 9.0945 18.6333C0.242577 21.6214 0 24.639 0 25.5C0 26.3019 0.32769 29.4081 9.06897 32.2907C4.93665 40.6219 6.91557 42.9263 7.52414 43.5382C8.0944 44.1038 10.5457 46.0705 18.772 41.9809C21.7468 50.7594 24.5173 51 25.7089 51C26.9516 51 29.722 50.6792 32.5606 42.0189C40.9189 46.1423 43.051 44.3697 43.8894 43.5382C44.7618 42.6688 46.4981 40.4953 42.3275 32.3667C51.1794 29.3786 51.422 26.361 51.422 25.5C51.422 24.6981 51.0943 21.5919 42.3531 18.7093C46.4854 10.3823 44.5065 8.07373 43.8894 7.47021C43.3149 6.90467 40.8593 4.93371 32.6074 9.04444C29.5093 0.164598 27.0367 0 25.7131 0ZM9.80521 9.72393C10.0818 9.4496 11.0138 8.26365 18.2145 11.1125C18.1805 11.2349 18.1422 11.353 18.1124 11.4839C17.0783 15.1894 14.8227 16.9494 11.6437 17.8483C11.482 17.8947 11.3288 17.9369 11.1756 17.9834C8.13271 11.0407 9.45624 10.0742 9.80521 9.72393ZM31.2158 12.0241C31.2924 11.9861 31.3648 11.9523 31.4414 11.9228C31.4882 12.0325 31.5265 12.138 31.569 12.2478C33.0415 15.9575 35.3992 18.4434 39.2123 19.8277C39.2974 19.8615 39.374 19.8868 39.4506 19.9163C39.3996 20.0261 39.3528 20.1274 39.3017 20.2413C37.6292 23.8709 37.5228 27.3443 39.3017 30.9655C39.34 31.0415 39.374 31.1174 39.4123 31.1934C39.3017 31.2398 39.1868 31.2778 39.0761 31.32C35.3141 32.7043 32.7564 35.0804 31.4328 38.8873C31.4073 38.9717 31.3733 39.0477 31.3477 39.1279C31.2371 39.0772 31.1307 39.0308 31.0115 38.9801C27.3388 37.3468 23.8832 37.2835 20.1977 38.9801C20.1211 39.0181 20.0445 39.0519 19.9722 39.0814C19.9253 38.9717 19.887 38.8662 19.8445 38.748C18.4103 35.0256 16.0143 32.5524 12.2012 31.1681C12.1161 31.1343 12.0395 31.109 11.9629 31.0794C12.0097 30.9697 12.0607 30.8684 12.1118 30.7587C13.7843 27.1291 13.8609 23.6768 12.1118 20.0345C12.0735 19.9585 12.0395 19.8826 12.0012 19.8066C12.1118 19.7602 12.2267 19.7222 12.3374 19.68C16.1037 18.2915 18.6231 15.8985 19.9892 12.1043C20.0147 12.0283 20.0488 11.9523 20.0743 11.8764C20.1849 11.9228 20.2913 11.9734 20.4105 12.0156C24.0874 13.6194 27.5346 13.7207 31.2158 12.0241ZM3.21308 25.5C3.21308 25.0526 2.98327 23.4742 10.1286 20.5536C10.201 20.676 10.2691 20.8026 10.3414 20.925C12.2523 24.2676 11.9033 27.0953 10.3031 29.9568C10.2265 30.0919 10.1542 30.2227 10.0776 30.3577C3.05562 27.5343 3.21308 25.9094 3.21308 25.5ZM9.80521 41.2803C9.48177 40.9595 8.19654 40.0057 11.167 32.928C11.3032 32.966 11.4352 33.004 11.5798 33.042C15.3164 34.0675 17.0825 36.3044 17.9975 39.4571C18.0443 39.609 18.0869 39.7567 18.1252 39.9044C11.1415 42.8334 10.0946 41.5715 9.80521 41.2803ZM25.7131 47.8136C25.3344 47.8136 23.7981 48.1976 20.7382 40.9469C20.8531 40.8836 20.9765 40.8118 21.0999 40.7485C24.4705 38.8535 27.3218 39.1996 30.2072 40.7865C30.3561 40.8709 30.5008 40.9511 30.6498 41.0271C27.9134 48.0119 26.0791 47.8136 25.7131 47.8136ZM41.6253 41.2803C41.3572 41.5462 40.5401 42.8925 33.2117 39.9171C33.25 39.7905 33.2883 39.6554 33.3224 39.5204C34.3565 35.8148 36.6121 34.0549 39.7911 33.1559C39.9571 33.1095 40.1188 33.0588 40.2805 33.0166C43.3148 39.8833 41.8892 41.0228 41.6253 41.2803ZM48.2132 25.5C48.2132 25.9474 48.443 27.5258 41.2976 30.4464C41.2253 30.324 41.1614 30.2058 41.0934 30.075C39.1825 26.7324 39.5315 23.9047 41.1317 21.0432C41.2083 20.9039 41.2849 20.7689 41.3572 20.6338C48.3749 23.4657 48.2132 25.0948 48.2132 25.5ZM41.6253 9.72393C41.9488 10.0447 43.234 10.9985 40.2635 18.0762C40.1273 18.0382 39.9954 18.0003 39.8507 17.9623C36.1141 16.9367 34.3991 14.6788 33.433 11.5472C33.3862 11.3995 33.3437 11.256 33.2969 11.1082C40.289 8.17503 41.3359 9.43694 41.6253 9.72393ZM30.6711 10.0658C30.5604 10.1291 30.4455 10.1882 30.3306 10.2557C26.9601 12.1507 24.1343 11.7582 21.2233 10.2177C21.0744 10.1418 20.9339 10.0658 20.785 9.98982C23.5938 2.94588 25.2195 3.18645 25.7174 3.18645C26.1004 3.18645 27.6027 2.99652 30.6711 10.0658Z" fill="url(#paint0_linear)"/>
<path fill-rule="evenodd" clip-rule="evenodd" d="M68.5005 33.2405C68.5005 33.6837 68.8495 34.0466 69.2793 34.0466H82.3103C82.3699 34.0466 82.4167 33.996 82.4167 33.9369V32.7847C82.4167 32.7256 82.3699 32.675 82.3103 32.675H70.3134C70.173 32.675 70.0581 32.5568 70.0581 32.4091V25.9349C70.0581 25.7872 70.173 25.6733 70.3134 25.6733H81.5145C81.5741 25.6733 81.6209 25.6226 81.6209 25.5635V24.4451C81.6209 24.386 81.5741 24.3354 81.5145 24.3354H70.3134C70.173 24.3354 70.0581 24.2172 70.0581 24.0737V18.5955C70.0581 18.4478 70.173 18.3339 70.3134 18.3339H82.1316C82.1912 18.3339 82.238 18.2832 82.238 18.2241V17.0677C82.238 17.0087 82.1912 16.958 82.1316 16.958H69.2793C68.8495 16.958 68.5005 17.321 68.5005 17.7641V33.2405V33.2405Z" fill="#042132"/>
<path fill-rule="evenodd" clip-rule="evenodd" d="M90.1749 34.0423H103.18C103.24 34.0423 103.291 33.9916 103.291 33.9326V32.7804C103.291 32.7171 103.24 32.6706 103.18 32.6706H91.0984C90.9537 32.6706 90.8346 32.5525 90.8346 32.4048V17.0676C90.8346 17.0085 90.7835 16.9579 90.7239 16.9579H89.4813C89.4217 16.9579 89.3706 17.0085 89.3706 17.0676V33.2404C89.3749 33.6836 89.7323 34.0423 90.1749 34.0423Z" fill="#042132"/>
<path fill-rule="evenodd" clip-rule="evenodd" d="M136.533 27.7622L141.167 18.7346C141.218 18.6418 141.32 18.608 141.397 18.608C141.478 18.608 141.58 18.6418 141.627 18.7346L146.253 27.7622C146.295 27.8424 146.291 27.9437 146.244 28.0197C146.197 28.0998 146.112 28.1505 146.019 28.1505H136.758C136.669 28.1505 136.584 28.1041 136.537 28.0239C136.49 27.9437 136.49 27.8466 136.533 27.7622ZM135.784 29.4926H147.002C147.1 29.4926 147.185 29.5475 147.232 29.6319L149.453 33.9832C149.47 34.0211 149.508 34.0422 149.551 34.0422H150.891C150.93 34.0422 150.964 34.0211 150.985 33.9874C151.002 33.9536 151.006 33.9114 150.989 33.8776L142.72 17.785C142.678 17.7006 142.269 16.9536 141.388 16.9536C140.49 16.9536 140.078 17.7471 140.061 17.7808L131.796 33.8819C131.779 33.9156 131.779 33.9578 131.8 33.9916C131.822 34.0254 131.856 34.0465 131.894 34.0465H133.234C133.277 34.0465 133.311 34.0254 133.332 33.9874L135.554 29.6403C135.601 29.5475 135.686 29.4926 135.784 29.4926Z" fill="#042132"/>
<path fill-rule="evenodd" clip-rule="evenodd" d="M124.455 28.045C124.208 27.6103 123.872 27.2178 123.455 26.8801C123.037 26.5467 122.544 26.2471 121.982 25.9938C121.425 25.7406 120.825 25.5127 120.199 25.3059C119.573 25.1033 118.922 24.9092 118.258 24.7361C117.594 24.5589 116.948 24.3858 116.322 24.2128C115.713 24.0482 115.118 23.8625 114.543 23.6599C113.99 23.4658 113.496 23.2463 113.083 23.0057C112.671 22.7694 112.343 22.4909 112.1 22.1828C111.858 21.8747 111.739 21.5244 111.739 21.1108C111.739 20.617 111.862 20.2034 112.122 19.8488C112.377 19.4943 112.751 19.1947 113.237 18.9626C113.709 18.7346 114.296 18.6123 115.032 18.4941C115.709 18.3886 116.488 18.3295 117.348 18.3295H123.425C123.45 18.3295 123.476 18.3168 123.497 18.2957C123.514 18.2746 123.527 18.2493 123.527 18.2198V17.0633C123.527 17.0043 123.48 16.9536 123.429 16.9536H123.331H117.356C116.76 16.9536 115.02 16.9958 114.037 17.249C113.517 17.3714 113.019 17.5445 112.564 17.7555C112.105 17.9665 111.7 18.2366 111.36 18.5489C111.019 18.8613 110.743 19.2369 110.547 19.6716C110.351 20.1021 110.249 20.6043 110.249 21.1614C110.249 21.727 110.372 22.2292 110.619 22.6597C110.866 23.0859 111.202 23.4658 111.619 23.7908C112.032 24.1115 112.526 24.3985 113.088 24.6433C113.645 24.8839 114.245 25.1033 114.862 25.2932C115.479 25.4832 116.13 25.6646 116.794 25.8292C117.458 25.9938 118.105 26.1626 118.722 26.3315C119.348 26.5045 119.944 26.6944 120.493 26.8928C121.05 27.0912 121.539 27.3233 121.952 27.5807C122.365 27.8382 122.693 28.142 122.935 28.4797C123.178 28.8215 123.293 29.2056 123.293 29.6572C123.293 30.2227 123.144 30.687 122.842 31.0753C122.544 31.4635 122.118 31.7801 121.578 32.0206C121.02 32.2697 120.339 32.3836 119.637 32.4891C118.952 32.5946 118.152 32.6495 117.19 32.6579H110.436C110.381 32.6579 110.338 32.7086 110.338 32.7677V33.9241C110.338 33.9874 110.381 34.0338 110.436 34.0338L117.143 34.038C117.726 34.038 118.331 34.0127 118.931 33.9578C119.535 33.9072 120.127 33.8143 120.693 33.6877L120.82 33.6582C121.335 33.5442 121.825 33.4303 122.293 33.2277C122.795 33.0082 123.233 32.7255 123.608 32.392C123.982 32.0586 124.28 31.6535 124.501 31.1934C124.723 30.7292 124.833 30.1805 124.833 29.5601C124.825 28.9904 124.701 28.4797 124.455 28.045Z" fill="#042132"/>
<defs>
<linearGradient id="paint0_linear" x1="25.711" y1="51" x2="25.711" y2="0" gradientUnits="userSpaceOnUse">
<stop stop-color="#007DF7"/>
<stop offset="0.5028" stop-color="#46DF83"/>
<stop offset="1" stop-color="#F8DA49"/>
</linearGradient>
</defs>
</svg>
