<svg width="1440" height="686" viewBox="0 0 1440 686" fill="none" xmlns="http://www.w3.org/2000/svg">
<g clip-path="url(#clip0)">
<rect width="1442" height="686" transform="matrix(-1 0 0 1 1441 0)" fill="white"/>
<path fill-rule="evenodd" clip-rule="evenodd" d="M1445.45 0H-1.00134V756.605H1445.45V0Z" fill="url(#paint0_linear)"/>
<g style="mix-blend-mode:soft-light">
<path fill-rule="evenodd" clip-rule="evenodd" d="M138.699 430.554C-58.5601 430.554 -218.47 270.644 -218.47 73.3854C-218.47 -123.873 -58.5601 -283.783 138.699 -283.783C335.957 -283.783 495.867 -123.873 495.867 73.3854C495.867 270.644 335.957 430.554 138.699 430.554ZM138.699 696.531C-205.455 696.531 -484.447 417.539 -484.447 73.3854C-484.447 -270.768 -205.455 -549.76 138.699 -549.76C482.852 -549.76 761.844 -270.768 761.844 73.3854C761.844 417.539 482.852 696.531 138.699 696.531Z" fill="url(#paint1_linear)"/>
</g>
<circle r="562.35" transform="matrix(-1 0 0 1 1382.4 793.01)" fill="url(#paint2_linear)" fill-opacity="0.8"/>
<g style="mix-blend-mode:soft-light">
<circle cx="1304.93" cy="-94.3974" r="252.678" fill="url(#paint3_linear)"/>
</g>
<g opacity="0.5">
<path d="M110 588C110 587.448 109.552 587 109 587C108.448 587 108 587.448 108 588C108 588.552 108.448 589 109 589C109.552 589 110 588.552 110 588Z" fill="white"/>
<path d="M673 588C673 587.448 672.552 587 672 587C671.448 587 671 587.448 671 588C671 588.552 671.448 589 672 589C672.552 589 673 588.552 673 588Z" fill="white"/>
<path d="M1236 588C1236 587.448 1235.55 587 1235 587C1234.45 587 1234 587.448 1234 588C1234 588.552 1234.45 589 1235 589C1235.55 589 1236 588.552 1236 588Z" fill="white"/>
<path d="M91 566C91 565.448 90.5523 565 90 565C89.4477 565 89 565.448 89 566C89 566.552 89.4477 567 90 567C90.5523 567 91 566.552 91 566Z" fill="white"/>
<path d="M654 566C654 565.448 653.552 565 653 565C652.448 565 652 565.448 652 566C652 566.552 652.448 567 653 567C653.552 567 654 566.552 654 566Z" fill="white"/>
<path d="M1217 566C1217 565.448 1216.55 565 1216 565C1215.45 565 1215 565.448 1215 566C1215 566.552 1215.45 567 1216 567C1216.55 567 1217 566.552 1217 566Z" fill="white"/>
<path d="M56 617.5C56 616.672 55.5523 616 55 616C54.4477 616 54 616.672 54 617.5C54 618.328 54.4477 619 55 619C55.5523 619 56 618.328 56 617.5Z" fill="#415783"/>
<path d="M619 617.5C619 616.672 618.552 616 618 616C617.448 616 617 616.672 617 617.5C617 618.328 617.448 619 618 619C618.552 619 619 618.328 619 617.5Z" fill="#415783"/>
<path d="M1182 617.5C1182 616.672 1181.55 616 1181 616C1180.45 616 1180 616.672 1180 617.5C1180 618.328 1180.45 619 1181 619C1181.55 619 1182 618.328 1182 617.5Z" fill="#415783"/>
<path d="M199 615C199 614.448 198.552 614 198 614C197.448 614 197 614.448 197 615C197 615.552 197.448 616 198 616C198.552 616 199 615.552 199 615Z" fill="white"/>
<path d="M762 615C762 614.448 761.552 614 761 614C760.448 614 760 614.448 760 615C760 615.552 760.448 616 761 616C761.552 616 762 615.552 762 615Z" fill="white"/>
<path d="M1325 615C1325 614.448 1324.55 614 1324 614C1323.45 614 1323 614.448 1323 615C1323 615.552 1323.45 616 1324 616C1324.55 616 1325 615.552 1325 615Z" fill="white"/>
<path d="M208 659C208 658.448 207.328 658 206.5 658C205.672 658 205 658.448 205 659C205 659.552 205.672 660 206.5 660C207.328 660 208 659.552 208 659Z" fill="white"/>
<path d="M771 659C771 658.448 770.328 658 769.5 658C768.672 658 768 658.448 768 659C768 659.552 768.672 660 769.5 660C770.328 660 771 659.552 771 659Z" fill="white"/>
<path d="M1334 659C1334 658.448 1333.33 658 1332.5 658C1331.67 658 1331 658.448 1331 659C1331 659.552 1331.67 660 1332.5 660C1333.33 660 1334 659.552 1334 659Z" fill="white"/>
<path d="M191 647.5C191 646.672 190.552 646 190 646C189.448 646 189 646.672 189 647.5C189 648.328 189.448 649 190 649C190.552 649 191 648.328 191 647.5Z" fill="#415783"/>
<path d="M754 647.5C754 646.672 753.552 646 753 646C752.448 646 752 646.672 752 647.5C752 648.328 752.448 649 753 649C753.552 649 754 648.328 754 647.5Z" fill="#415783"/>
<path d="M1317 647.5C1317 646.672 1316.55 646 1316 646C1315.45 646 1315 646.672 1315 647.5C1315 648.328 1315.45 649 1316 649C1316.55 649 1317 648.328 1317 647.5Z" fill="#415783"/>
<path d="M319 531.5C319 530.672 318.552 530 318 530C317.448 530 317 530.672 317 531.5C317 532.328 317.448 533 318 533C318.552 533 319 532.328 319 531.5Z" fill="#415783"/>
<path d="M882 531.5C882 530.672 881.552 530 881 530C880.448 530 880 530.672 880 531.5C880 532.328 880.448 533 881 533C881.552 533 882 532.328 882 531.5Z" fill="#415783"/>
<path d="M205 503.5C205 502.672 204.552 502 204 502C203.448 502 203 502.672 203 503.5C203 504.328 203.448 505 204 505C204.552 505 205 504.328 205 503.5Z" fill="#1A3673"/>
<path d="M768 503.5C768 502.672 767.552 502 767 502C766.448 502 766 502.672 766 503.5C766 504.328 766.448 505 767 505C767.552 505 768 504.328 768 503.5Z" fill="#1A3673"/>
<path d="M1331 503.5C1331 502.672 1330.55 502 1330 502C1329.45 502 1329 502.672 1329 503.5C1329 504.328 1329.45 505 1330 505C1330.55 505 1331 504.328 1331 503.5Z" fill="#1A3673"/>
<path d="M361 573C361 572.448 360.552 572 360 572C359.448 572 359 572.448 359 573C359 573.552 359.448 574 360 574C360.552 574 361 573.552 361 573Z" fill="#1A3673"/>
<path d="M924 573C924 572.448 923.552 572 923 572C922.448 572 922 572.448 922 573C922 573.552 922.448 574 923 574C923.552 574 924 573.552 924 573Z" fill="#1A3673"/>
<path d="M304 668.5C304 667.672 303.552 667 303 667C302.448 667 302 667.672 302 668.5C302 669.328 302.448 670 303 670C303.552 670 304 669.328 304 668.5Z" fill="white"/>
<path d="M867 668.5C867 667.672 866.552 667 866 667C865.448 667 865 667.672 865 668.5C865 669.328 865.448 670 866 670C866.552 670 867 669.328 867 668.5Z" fill="white"/>
<path d="M1430 668.5C1430 667.672 1429.55 667 1429 667C1428.45 667 1428 667.672 1428 668.5C1428 669.328 1428.45 670 1429 670C1429.55 670 1430 669.328 1430 668.5Z" fill="white"/>
<path d="M359 670C359 669.448 358.328 669 357.5 669C356.672 669 356 669.448 356 670C356 670.552 356.672 671 357.5 671C358.328 671 359 670.552 359 670Z" fill="white"/>
<path d="M922 670C922 669.448 921.328 669 920.5 669C919.672 669 919 669.448 919 670C919 670.552 919.672 671 920.5 671C921.328 671 922 670.552 922 670Z" fill="white"/>
<path d="M245 571C245 570.448 244.328 570 243.5 570C242.672 570 242 570.448 242 571C242 571.552 242.672 572 243.5 572C244.328 572 245 571.552 245 571Z" fill="white"/>
<path d="M808 571C808 570.448 807.328 570 806.5 570C805.672 570 805 570.448 805 571C805 571.552 805.672 572 806.5 572C807.328 572 808 571.552 808 571Z" fill="white"/>
<path d="M1371 571C1371 570.448 1370.33 570 1369.5 570C1368.67 570 1368 570.448 1368 571C1368 571.552 1368.67 572 1369.5 572C1370.33 572 1371 571.552 1371 571Z" fill="white"/>
<path d="M95 685C95 684.448 94.3284 684 93.5 684C92.6716 684 92 684.448 92 685C92 685.552 92.6716 686 93.5 686C94.3284 686 95 685.552 95 685Z" fill="white"/>
<path d="M658 685C658 684.448 657.328 684 656.5 684C655.672 684 655 684.448 655 685C655 685.552 655.672 686 656.5 686C657.328 686 658 685.552 658 685Z" fill="white"/>
<path d="M1221 685C1221 684.448 1220.33 684 1219.5 684C1218.67 684 1218 684.448 1218 685C1218 685.552 1218.67 686 1219.5 686C1220.33 686 1221 685.552 1221 685Z" fill="white"/>
<path d="M304 495C304 494.448 303.552 494 303 494C302.448 494 302 494.448 302 495C302 495.552 302.448 496 303 496C303.552 496 304 495.552 304 495Z" fill="white"/>
<path d="M867 495C867 494.448 866.552 494 866 494C865.448 494 865 494.448 865 495C865 495.552 865.448 496 866 496C866.552 496 867 495.552 867 495Z" fill="white"/>
<path d="M1430 495C1430 494.448 1429.55 494 1429 494C1428.45 494 1428 494.448 1428 495C1428 495.552 1428.45 496 1429 496C1429.55 496 1430 495.552 1430 495Z" fill="white"/>
<path d="M138 535C138 534.448 137.328 534 136.5 534C135.672 534 135 534.448 135 535C135 535.552 135.672 536 136.5 536C137.328 536 138 535.552 138 535Z" fill="#1A3673"/>
<path d="M701 535C701 534.448 700.328 534 699.5 534C698.672 534 698 534.448 698 535C698 535.552 698.672 536 699.5 536C700.328 536 701 535.552 701 535Z" fill="#1A3673"/>
<path d="M1264 535C1264 534.448 1263.33 534 1262.5 534C1261.67 534 1261 534.448 1261 535C1261 535.552 1261.67 536 1262.5 536C1263.33 536 1264 535.552 1264 535Z" fill="#1A3673"/>
<path d="M76 487C76 486.448 75.5523 486 75 486C74.4477 486 74 486.448 74 487C74 487.552 74.4477 488 75 488C75.5523 488 76 487.552 76 487Z" fill="#415783"/>
<path d="M639 487C639 486.448 638.552 486 638 486C637.448 486 637 486.448 637 487C637 487.552 637.448 488 638 488C638.552 488 639 487.552 639 487Z" fill="#415783"/>
<path d="M1202 487C1202 486.448 1201.55 486 1201 486C1200.45 486 1200 486.448 1200 487C1200 487.552 1200.45 488 1201 488C1201.55 488 1202 487.552 1202 487Z" fill="#415783"/>
<path d="M356 613C356 612.448 355.552 612 355 612C354.448 612 354 612.448 354 613C354 613.552 354.448 614 355 614C355.552 614 356 613.552 356 613Z" fill="white"/>
<path d="M919 613C919 612.448 918.552 612 918 612C917.448 612 917 612.448 917 613C917 613.552 917.448 614 918 614C918.552 614 919 613.552 919 613Z" fill="white"/>
<path d="M344 639.5C344 638.672 343.328 638 342.5 638C341.672 638 341 638.672 341 639.5C341 640.328 341.672 641 342.5 641C343.328 641 344 640.328 344 639.5Z" fill="#415783"/>
<path d="M907 639.5C907 638.672 906.328 638 905.5 638C904.672 638 904 638.672 904 639.5C904 640.328 904.672 641 905.5 641C906.328 641 907 640.328 907 639.5Z" fill="#415783"/>
<path d="M4 529C4 528.448 3.55229 528 3 528C2.44772 528 2 528.448 2 529C2 529.552 2.44772 530 3 530C3.55229 530 4 529.552 4 529Z" fill="white"/>
<path d="M567 529C567 528.448 566.552 528 566 528C565.448 528 565 528.448 565 529C565 529.552 565.448 530 566 530C566.552 530 567 529.552 567 529Z" fill="white"/>
<path d="M1130 529C1130 528.448 1129.55 528 1129 528C1128.45 528 1128 528.448 1128 529C1128 529.552 1128.45 530 1129 530C1129.55 530 1130 529.552 1130 529Z" fill="white"/>
<path d="M526 511.5C526 510.672 525.552 510 525 510C524.448 510 524 510.672 524 511.5C524 512.328 524.448 513 525 513C525.552 513 526 512.328 526 511.5Z" fill="#1A3673"/>
<path d="M1089 511.5C1089 510.672 1088.55 510 1088 510C1087.45 510 1087 510.672 1087 511.5C1087 512.328 1087.45 513 1088 513C1088.55 513 1089 512.328 1089 511.5Z" fill="#1A3673"/>
<path d="M518 624.5C518 623.672 517.552 623 517 623C516.448 623 516 623.672 516 624.5C516 625.328 516.448 626 517 626C517.552 626 518 625.328 518 624.5Z" fill="white"/>
<path d="M1081 624.5C1081 623.672 1080.55 623 1080 623C1079.45 623 1079 623.672 1079 624.5C1079 625.328 1079.45 626 1080 626C1080.55 626 1081 625.328 1081 624.5Z" fill="white"/>
<path d="M548 672C548 671.448 547.552 671 547 671C546.448 671 546 671.448 546 672C546 672.552 546.448 673 547 673C547.552 673 548 672.552 548 672Z" fill="#0F0F2B"/>
<path d="M1111 672C1111 671.448 1110.55 671 1110 671C1109.45 671 1109 671.448 1109 672C1109 672.552 1109.45 673 1110 673C1110.55 673 1111 672.552 1111 672Z" fill="#0F0F2B"/>
</g>
<g opacity="0.5">
<path d="M110 102C110 101.448 109.552 101 109 101C108.448 101 108 101.448 108 102C108 102.552 108.448 103 109 103C109.552 103 110 102.552 110 102Z" fill="white"/>
<path d="M673 102C673 101.448 672.552 101 672 101C671.448 101 671 101.448 671 102C671 102.552 671.448 103 672 103C672.552 103 673 102.552 673 102Z" fill="white"/>
<path d="M1236 102C1236 101.448 1235.55 101 1235 101C1234.45 101 1234 101.448 1234 102C1234 102.552 1234.45 103 1235 103C1235.55 103 1236 102.552 1236 102Z" fill="white"/>
<path d="M91 80C91 79.4477 90.5523 79 90 79C89.4477 79 89 79.4477 89 80C89 80.5523 89.4477 81 90 81C90.5523 81 91 80.5523 91 80Z" fill="white"/>
<path d="M654 80C654 79.4477 653.552 79 653 79C652.448 79 652 79.4477 652 80C652 80.5523 652.448 81 653 81C653.552 81 654 80.5523 654 80Z" fill="white"/>
<path d="M1217 80C1217 79.4477 1216.55 79 1216 79C1215.45 79 1215 79.4477 1215 80C1215 80.5523 1215.45 81 1216 81C1216.55 81 1217 80.5523 1217 80Z" fill="white"/>
<path d="M56 131.5C56 130.672 55.5523 130 55 130C54.4477 130 54 130.672 54 131.5C54 132.328 54.4477 133 55 133C55.5523 133 56 132.328 56 131.5Z" fill="#415783"/>
<path d="M619 131.5C619 130.672 618.552 130 618 130C617.448 130 617 130.672 617 131.5C617 132.328 617.448 133 618 133C618.552 133 619 132.328 619 131.5Z" fill="#415783"/>
<path d="M1182 131.5C1182 130.672 1181.55 130 1181 130C1180.45 130 1180 130.672 1180 131.5C1180 132.328 1180.45 133 1181 133C1181.55 133 1182 132.328 1182 131.5Z" fill="#415783"/>
<path d="M199 129C199 128.448 198.552 128 198 128C197.448 128 197 128.448 197 129C197 129.552 197.448 130 198 130C198.552 130 199 129.552 199 129Z" fill="white"/>
<path d="M762 129C762 128.448 761.552 128 761 128C760.448 128 760 128.448 760 129C760 129.552 760.448 130 761 130C761.552 130 762 129.552 762 129Z" fill="white"/>
<path d="M1325 129C1325 128.448 1324.55 128 1324 128C1323.45 128 1323 128.448 1323 129C1323 129.552 1323.45 130 1324 130C1324.55 130 1325 129.552 1325 129Z" fill="white"/>
<path d="M208 173C208 172.448 207.328 172 206.5 172C205.672 172 205 172.448 205 173C205 173.552 205.672 174 206.5 174C207.328 174 208 173.552 208 173Z" fill="white"/>
<path d="M771 173C771 172.448 770.328 172 769.5 172C768.672 172 768 172.448 768 173C768 173.552 768.672 174 769.5 174C770.328 174 771 173.552 771 173Z" fill="white"/>
<path d="M1334 173C1334 172.448 1333.33 172 1332.5 172C1331.67 172 1331 172.448 1331 173C1331 173.552 1331.67 174 1332.5 174C1333.33 174 1334 173.552 1334 173Z" fill="white"/>
<path d="M191 161.5C191 160.672 190.552 160 190 160C189.448 160 189 160.672 189 161.5C189 162.328 189.448 163 190 163C190.552 163 191 162.328 191 161.5Z" fill="#415783"/>
<path d="M754 161.5C754 160.672 753.552 160 753 160C752.448 160 752 160.672 752 161.5C752 162.328 752.448 163 753 163C753.552 163 754 162.328 754 161.5Z" fill="#415783"/>
<path d="M1317 161.5C1317 160.672 1316.55 160 1316 160C1315.45 160 1315 160.672 1315 161.5C1315 162.328 1315.45 163 1316 163C1316.55 163 1317 162.328 1317 161.5Z" fill="#415783"/>
<path d="M319 45.5C319 44.6716 318.552 44 318 44C317.448 44 317 44.6716 317 45.5C317 46.3284 317.448 47 318 47C318.552 47 319 46.3284 319 45.5Z" fill="#415783"/>
<path d="M882 45.5C882 44.6716 881.552 44 881 44C880.448 44 880 44.6716 880 45.5C880 46.3284 880.448 47 881 47C881.552 47 882 46.3284 882 45.5Z" fill="#415783"/>
<path d="M205 17.5C205 16.6716 204.552 16 204 16C203.448 16 203 16.6716 203 17.5C203 18.3284 203.448 19 204 19C204.552 19 205 18.3284 205 17.5Z" fill="#1A3673"/>
<path d="M768 17.5C768 16.6716 767.552 16 767 16C766.448 16 766 16.6716 766 17.5C766 18.3284 766.448 19 767 19C767.552 19 768 18.3284 768 17.5Z" fill="#1A3673"/>
<path d="M1331 17.5C1331 16.6716 1330.55 16 1330 16C1329.45 16 1329 16.6716 1329 17.5C1329 18.3284 1329.45 19 1330 19C1330.55 19 1331 18.3284 1331 17.5Z" fill="#1A3673"/>
<path d="M361 87C361 86.4477 360.552 86 360 86C359.448 86 359 86.4477 359 87C359 87.5523 359.448 88 360 88C360.552 88 361 87.5523 361 87Z" fill="#1A3673"/>
<path d="M924 87C924 86.4477 923.552 86 923 86C922.448 86 922 86.4477 922 87C922 87.5523 922.448 88 923 88C923.552 88 924 87.5523 924 87Z" fill="#1A3673"/>
<path d="M304 182.5C304 181.672 303.552 181 303 181C302.448 181 302 181.672 302 182.5C302 183.328 302.448 184 303 184C303.552 184 304 183.328 304 182.5Z" fill="white"/>
<path d="M867 182.5C867 181.672 866.552 181 866 181C865.448 181 865 181.672 865 182.5C865 183.328 865.448 184 866 184C866.552 184 867 183.328 867 182.5Z" fill="white"/>
<path d="M1430 182.5C1430 181.672 1429.55 181 1429 181C1428.45 181 1428 181.672 1428 182.5C1428 183.328 1428.45 184 1429 184C1429.55 184 1430 183.328 1430 182.5Z" fill="white"/>
<path d="M359 184C359 183.448 358.328 183 357.5 183C356.672 183 356 183.448 356 184C356 184.552 356.672 185 357.5 185C358.328 185 359 184.552 359 184Z" fill="white"/>
<path d="M922 184C922 183.448 921.328 183 920.5 183C919.672 183 919 183.448 919 184C919 184.552 919.672 185 920.5 185C921.328 185 922 184.552 922 184Z" fill="white"/>
<path d="M245 85C245 84.4477 244.328 84 243.5 84C242.672 84 242 84.4477 242 85C242 85.5523 242.672 86 243.5 86C244.328 86 245 85.5523 245 85Z" fill="white"/>
<path d="M808 85C808 84.4477 807.328 84 806.5 84C805.672 84 805 84.4477 805 85C805 85.5523 805.672 86 806.5 86C807.328 86 808 85.5523 808 85Z" fill="white"/>
<path d="M1371 85C1371 84.4477 1370.33 84 1369.5 84C1368.67 84 1368 84.4477 1368 85C1368 85.5523 1368.67 86 1369.5 86C1370.33 86 1371 85.5523 1371 85Z" fill="white"/>
<path d="M95 199C95 198.448 94.3284 198 93.5 198C92.6716 198 92 198.448 92 199C92 199.552 92.6716 200 93.5 200C94.3284 200 95 199.552 95 199Z" fill="white"/>
<path d="M658 199C658 198.448 657.328 198 656.5 198C655.672 198 655 198.448 655 199C655 199.552 655.672 200 656.5 200C657.328 200 658 199.552 658 199Z" fill="white"/>
<path d="M1221 199C1221 198.448 1220.33 198 1219.5 198C1218.67 198 1218 198.448 1218 199C1218 199.552 1218.67 200 1219.5 200C1220.33 200 1221 199.552 1221 199Z" fill="white"/>
<path d="M304 9C304 8.44771 303.552 8 303 8C302.448 8 302 8.44771 302 9C302 9.55229 302.448 10 303 10C303.552 10 304 9.55229 304 9Z" fill="white"/>
<path d="M867 9C867 8.44771 866.552 8 866 8C865.448 8 865 8.44771 865 9C865 9.55229 865.448 10 866 10C866.552 10 867 9.55229 867 9Z" fill="white"/>
<path d="M1430 9C1430 8.44771 1429.55 8 1429 8C1428.45 8 1428 8.44771 1428 9C1428 9.55229 1428.45 10 1429 10C1429.55 10 1430 9.55229 1430 9Z" fill="white"/>
<path d="M138 49C138 48.4477 137.328 48 136.5 48C135.672 48 135 48.4477 135 49C135 49.5523 135.672 50 136.5 50C137.328 50 138 49.5523 138 49Z" fill="#1A3673"/>
<path d="M701 49C701 48.4477 700.328 48 699.5 48C698.672 48 698 48.4477 698 49C698 49.5523 698.672 50 699.5 50C700.328 50 701 49.5523 701 49Z" fill="#1A3673"/>
<path d="M1264 49C1264 48.4477 1263.33 48 1262.5 48C1261.67 48 1261 48.4477 1261 49C1261 49.5523 1261.67 50 1262.5 50C1263.33 50 1264 49.5523 1264 49Z" fill="#1A3673"/>
<path d="M76 1C76 0.447714 75.5523 -6.78526e-08 75 -4.37115e-08C74.4477 -1.95703e-08 74 0.447714 74 1C74 1.55229 74.4477 2 75 2C75.5523 2 76 1.55229 76 1Z" fill="#415783"/>
<path d="M639 1C639 0.447714 638.552 -6.78526e-08 638 -4.37115e-08C637.448 -1.95703e-08 637 0.447714 637 1C637 1.55229 637.448 2 638 2C638.552 2 639 1.55229 639 1Z" fill="#415783"/>
<path d="M1202 1C1202 0.447714 1201.55 -6.78526e-08 1201 -4.37115e-08C1200.45 -1.95703e-08 1200 0.447714 1200 1C1200 1.55229 1200.45 2 1201 2C1201.55 2 1202 1.55229 1202 1Z" fill="#415783"/>
<path d="M356 127C356 126.448 355.552 126 355 126C354.448 126 354 126.448 354 127C354 127.552 354.448 128 355 128C355.552 128 356 127.552 356 127Z" fill="white"/>
<path d="M919 127C919 126.448 918.552 126 918 126C917.448 126 917 126.448 917 127C917 127.552 917.448 128 918 128C918.552 128 919 127.552 919 127Z" fill="white"/>
<path d="M344 153.5C344 152.672 343.328 152 342.5 152C341.672 152 341 152.672 341 153.5C341 154.328 341.672 155 342.5 155C343.328 155 344 154.328 344 153.5Z" fill="#415783"/>
<path d="M907 153.5C907 152.672 906.328 152 905.5 152C904.672 152 904 152.672 904 153.5C904 154.328 904.672 155 905.5 155C906.328 155 907 154.328 907 153.5Z" fill="#415783"/>
<path d="M4 43C4 42.4477 3.55229 42 3 42C2.44772 42 2 42.4477 2 43C2 43.5523 2.44772 44 3 44C3.55229 44 4 43.5523 4 43Z" fill="white"/>
<path d="M567 43C567 42.4477 566.552 42 566 42C565.448 42 565 42.4477 565 43C565 43.5523 565.448 44 566 44C566.552 44 567 43.5523 567 43Z" fill="white"/>
<path d="M1130 43C1130 42.4477 1129.55 42 1129 42C1128.45 42 1128 42.4477 1128 43C1128 43.5523 1128.45 44 1129 44C1129.55 44 1130 43.5523 1130 43Z" fill="white"/>
<path d="M526 25.5C526 24.6716 525.552 24 525 24C524.448 24 524 24.6716 524 25.5C524 26.3284 524.448 27 525 27C525.552 27 526 26.3284 526 25.5Z" fill="#1A3673"/>
<path d="M1089 25.5C1089 24.6716 1088.55 24 1088 24C1087.45 24 1087 24.6716 1087 25.5C1087 26.3284 1087.45 27 1088 27C1088.55 27 1089 26.3284 1089 25.5Z" fill="#1A3673"/>
<path d="M518 138.5C518 137.672 517.552 137 517 137C516.448 137 516 137.672 516 138.5C516 139.328 516.448 140 517 140C517.552 140 518 139.328 518 138.5Z" fill="white"/>
<path d="M1081 138.5C1081 137.672 1080.55 137 1080 137C1079.45 137 1079 137.672 1079 138.5C1079 139.328 1079.45 140 1080 140C1080.55 140 1081 139.328 1081 138.5Z" fill="white"/>
<path d="M548 186C548 185.448 547.552 185 547 185C546.448 185 546 185.448 546 186C546 186.552 546.448 187 547 187C547.552 187 548 186.552 548 186Z" fill="#0F0F2B"/>
<path d="M1111 186C1111 185.448 1110.55 185 1110 185C1109.45 185 1109 185.448 1109 186C1109 186.552 1109.45 187 1110 187C1110.55 187 1111 186.552 1111 186Z" fill="#0F0F2B"/>
</g>
</g>
<defs>
<linearGradient id="paint0_linear" x1="722.224" y1="99.0088" x2="722.224" y2="1226.53" gradientUnits="userSpaceOnUse">
<stop stop-color="#463DAF"/>
<stop offset="1" stop-color="#0D0D25"/>
</linearGradient>
<linearGradient id="paint1_linear" x1="849.236" y1="-344.578" x2="397.076" y2="519.846" gradientUnits="userSpaceOnUse">
<stop stop-color="white"/>
<stop offset="1" stop-color="white" stop-opacity="0"/>
</linearGradient>
<linearGradient id="paint2_linear" x1="-3.49346e-05" y1="-71.9595" x2="898.162" y2="1124.7" gradientUnits="userSpaceOnUse">
<stop stop-color="#463DAF"/>
<stop offset="1" stop-color="#0D0D25"/>
</linearGradient>
<linearGradient id="paint3_linear" x1="1304.93" y1="-347.075" x2="1304.93" y2="158.28" gradientUnits="userSpaceOnUse">
<stop stop-color="white"/>
<stop offset="1" stop-color="white" stop-opacity="0"/>
</linearGradient>
<clipPath id="clip0">
<rect width="1442" height="686" fill="white" transform="matrix(-1 0 0 1 1441 0)"/>
</clipPath>
</defs>
</svg>
