<svg width="191" height="197" viewBox="0 0 191 197" fill="none" xmlns="http://www.w3.org/2000/svg">
<path d="M0.204 11.968C0.204 25.568 14.824 27.404 14.824 37.196C14.824 40.596 13.328 41.82 10.948 41.82C8.568 41.82 7.072 40.596 7.072 37.196V33.796H0V36.72C0 44.336 3.808 48.688 11.152 48.688C18.496 48.688 22.304 44.336 22.304 36.72C22.304 23.12 7.684 21.284 7.684 11.492C7.684 8.092 9.044 6.8 11.424 6.8C13.804 6.8 15.164 8.092 15.164 11.492V13.464H22.236V11.968C22.236 4.352 18.496 0 11.22 0C3.944 0 0.204 4.352 0.204 11.968Z" fill="#121131"/>
<path d="M52.2816 30.396H45.2096V37.196C45.2096 40.596 43.7136 41.82 41.3336 41.82C38.9536 41.82 37.4576 40.596 37.4576 37.196V11.492C37.4576 8.092 38.9536 6.8 41.3336 6.8C43.7136 6.8 45.2096 8.092 45.2096 11.492V16.592H52.2816V11.968C52.2816 4.352 48.4736 0 41.1296 0C33.7856 0 29.9776 4.352 29.9776 11.968V36.72C29.9776 44.336 33.7856 48.688 41.1296 48.688C48.4736 48.688 52.2816 44.336 52.2816 36.72V30.396Z" fill="#121131"/>
<path d="M60.8201 0.543997V48.144H68.3001V0.543997H60.8201Z" fill="#121131"/>
<path d="M85.2493 20.604V7.344H98.1693V0.543997H77.7693V48.144H98.1693V41.344H85.2493V27.404H95.5173V20.604H85.2493Z" fill="#121131"/>
<path d="M113.468 13.668L122.784 48.144H130.468V0.543997H123.804V29.036L116.12 0.543997H106.736V48.144H113.468V13.668Z" fill="#121131"/>
<path d="M161.516 30.396H154.444V37.196C154.444 40.596 152.948 41.82 150.568 41.82C148.188 41.82 146.692 40.596 146.692 37.196V11.492C146.692 8.092 148.188 6.8 150.568 6.8C152.948 6.8 154.444 8.092 154.444 11.492V16.592H161.516V11.968C161.516 4.352 157.708 0 150.364 0C143.02 0 139.212 4.352 139.212 11.968V36.72C139.212 44.336 143.02 48.688 150.364 48.688C157.708 48.688 161.516 44.336 161.516 36.72V30.396Z" fill="#121131"/>
<path d="M177.534 20.604V7.344H190.454V0.543997H170.054V48.144H190.454V41.344H177.534V27.404H187.802V20.604H177.534Z" fill="#121131"/>
<path d="M12.444 74.544H1.156V122.144H12.92C20.4 122.144 24.276 118.2 24.276 110.856V106.98C24.276 101.948 22.712 98.344 18.7 96.78C22.032 95.216 23.528 92.088 23.528 87.192V85.492C23.528 78.148 20.196 74.544 12.444 74.544ZM8.636 81.344H12.24C14.892 81.344 16.048 82.84 16.048 86.24V88.892C16.048 92.7 14.348 93.924 11.56 93.924H8.636V81.344ZM8.636 100.724H11.968C15.368 100.724 16.796 102.084 16.796 106.504V110.652C16.796 114.188 15.436 115.344 12.92 115.344H8.636V100.724Z" fill="#121131"/>
<path d="M40.261 94.604V81.344H53.181V74.544H32.781V122.144H53.181V115.344H40.261V101.404H50.529V94.604H40.261Z" fill="#121131"/>
<path d="M69.2962 122.144V101.744H77.7962V122.144H85.4122V74.544H77.7962V94.944H69.2962V74.544H61.8162V122.144H69.2962Z" fill="#121131"/>
<path d="M94.8357 74.544V122.144H102.316V74.544H94.8357Z" fill="#121131"/>
<path d="M118.449 87.668L127.765 122.144H135.449V74.544H128.785V103.036L121.101 74.544H111.717V122.144H118.449V87.668Z" fill="#121131"/>
<path d="M144.804 74.544V122.144H156.636C164.116 122.144 167.788 117.996 167.788 110.38V86.308C167.788 78.692 164.116 74.544 156.636 74.544H144.804ZM152.284 81.344H156.5C158.88 81.344 160.308 82.568 160.308 85.968V110.72C160.308 114.12 158.88 115.344 156.5 115.344H152.284V81.344Z" fill="#121131"/>
<path d="M8.636 168.604V155.344H21.556V148.544H1.156V196.144H21.556V189.344H8.636V175.404H18.904V168.604H8.636Z" fill="#121131"/>
<path d="M30.1912 148.544V196.144H49.9792V189.344H37.6712V148.544H30.1912Z" fill="#121131"/>
<path d="M56.2821 159.968C56.2821 173.568 70.9021 175.404 70.9021 185.196C70.9021 188.596 69.4061 189.82 67.0261 189.82C64.6461 189.82 63.1501 188.596 63.1501 185.196V181.796H56.0781V184.72C56.0781 192.336 59.8861 196.688 67.2301 196.688C74.5741 196.688 78.3821 192.336 78.3821 184.72C78.3821 171.12 63.7621 169.284 63.7621 159.492C63.7621 156.092 65.1221 154.8 67.5021 154.8C69.8821 154.8 71.2421 156.092 71.2421 159.492V161.464H78.3141V159.968C78.3141 152.352 74.5741 148 67.2981 148C60.0221 148 56.2821 152.352 56.2821 159.968Z" fill="#121131"/>
<path d="M110.876 196.144L103.26 148.544H92.3117L84.6957 196.144H91.5637L92.8557 187.508H102.036L103.328 196.144H110.876ZM93.8077 181.048L97.4117 156.976L101.016 181.048H93.8077Z" fill="#121131"/>
</svg>
