<svg width="70" height="44" viewBox="0 0 70 44" fill="none" xmlns="http://www.w3.org/2000/svg">
<path fill-rule="evenodd" clip-rule="evenodd" d="M32.256 6.94182L26.1652 6.04511L23.4447 0.44967C23.3651 0.312724 23.2516 0.199211 23.1154 0.120347C22.9793 0.0414828 22.8252 0 22.6684 0C22.5116 0 22.3575 0.0414828 22.2213 0.120347C22.0852 0.199211 21.9717 0.312724 21.8921 0.44967L19.1647 6.04511L13.0739 6.94182C12.914 6.96537 12.7637 7.03378 12.6402 7.13933C12.5166 7.24488 12.4246 7.38336 12.3746 7.53912C12.3246 7.69489 12.3185 7.86173 12.3571 8.02079C12.3957 8.17986 12.4774 8.32481 12.593 8.43927L17.0013 12.7946L15.9616 18.9425C15.9344 19.1039 15.9523 19.2697 16.0132 19.4214C16.0741 19.573 16.1756 19.7044 16.3062 19.8007C16.4369 19.897 16.5915 19.9543 16.7526 19.9662C16.9137 19.9781 17.0748 19.9442 17.2179 19.8682L22.6649 16.9664L28.1128 19.869C28.2559 19.945 28.4171 19.979 28.5782 19.9671C28.7393 19.9552 28.8939 19.8978 29.0245 19.8016C29.1552 19.7053 29.2567 19.5739 29.3175 19.4223C29.3784 19.2706 29.3963 19.1047 29.3691 18.9433L28.3294 12.7955L32.7377 8.44015C32.8533 8.32569 32.935 8.18074 32.9736 8.02167C33.0122 7.86261 33.0062 7.69576 32.9562 7.54C32.9061 7.38423 32.8141 7.24575 32.6906 7.1402C32.567 7.03466 32.4167 6.96624 32.2568 6.9427L32.256 6.94182ZM56.9239 6.94182L50.8331 6.04511L48.1127 0.44967C48.0331 0.312724 47.9196 0.199211 47.7834 0.120347C47.6473 0.0414828 47.4932 0 47.3364 0C47.1796 0 47.0255 0.0414828 46.8893 0.120347C46.7532 0.199211 46.6397 0.312724 46.5601 0.44967L43.8326 6.04511L37.7419 6.94182C37.582 6.96537 37.4317 7.03378 37.3081 7.13933C37.1846 7.24488 37.0926 7.38336 37.0425 7.53912C36.9925 7.69489 36.9865 7.86173 37.0251 8.02079C37.0637 8.17986 37.1454 8.32481 37.261 8.43927L41.6693 12.7946L40.6296 18.9425C40.6024 19.1039 40.6203 19.2697 40.6811 19.4214C40.742 19.573 40.8435 19.7044 40.9742 19.8007C41.1048 19.897 41.2594 19.9543 41.4205 19.9662C41.5816 19.9781 41.7428 19.9442 41.8859 19.8682L47.3329 16.9664L52.7808 19.869C52.9239 19.945 53.085 19.979 53.2461 19.9671C53.4072 19.9552 53.5618 19.8978 53.6925 19.8016C53.8231 19.7053 53.9246 19.5739 53.9855 19.4223C54.0464 19.2706 54.0643 19.1047 54.0371 18.9433L52.9974 12.7955L57.4056 8.44015C57.5212 8.32569 57.603 8.18074 57.6416 8.02167C57.6802 7.86261 57.6741 7.69576 57.6241 7.54C57.5741 7.38423 57.4821 7.24575 57.3585 7.1402C57.2349 7.03466 57.0847 6.96624 56.9248 6.9427L56.9239 6.94182ZM13.8331 30.0764L19.9239 30.9731L19.9248 30.9739C20.0847 30.9975 20.2349 31.0659 20.3585 31.1715C20.4821 31.277 20.5741 31.4155 20.6241 31.5712C20.6741 31.727 20.6802 31.8939 20.6416 32.0529C20.603 32.212 20.5212 32.3569 20.4056 32.4714L15.9974 36.8267L17.0371 42.9746C17.0643 43.136 17.0464 43.3019 16.9855 43.4535C16.9246 43.6052 16.8231 43.7365 16.6925 43.8328C16.5618 43.9291 16.4072 43.9864 16.2461 43.9983C16.085 44.0103 15.9239 43.9763 15.7808 43.9003L10.3329 40.9976L4.88585 43.8994C4.74279 43.9754 4.58162 44.0094 4.42053 43.9975C4.25944 43.9855 4.10485 43.9282 3.9742 43.8319C3.84355 43.7357 3.74204 43.6043 3.68115 43.4526C3.62025 43.301 3.60239 43.1351 3.62958 42.9737L4.66925 36.8258L0.261018 32.4705C0.145415 32.3561 0.0636949 32.2111 0.0250889 32.052C-0.0135171 31.893 -0.0074704 31.7261 0.0425478 31.5704C0.092566 31.4146 0.184562 31.2761 0.30814 31.1706C0.431717 31.065 0.581952 30.9966 0.741869 30.9731L6.83265 30.0764L9.56007 24.4809C9.63968 24.344 9.75317 24.2305 9.88932 24.1516C10.0255 24.0727 10.1796 24.0312 10.3364 24.0312C10.4932 24.0312 10.6473 24.0727 10.7834 24.1516C10.9196 24.2305 11.033 24.344 11.1127 24.4809L13.8331 30.0764ZM44.5919 30.9731L38.5011 30.0764L35.7806 24.4809C35.701 24.344 35.5875 24.2305 35.4514 24.1516C35.3152 24.0727 35.1611 24.0312 35.0043 24.0312C34.8475 24.0312 34.6934 24.0727 34.5573 24.1516C34.4211 24.2305 34.3077 24.344 34.228 24.4809L31.5006 30.0764L25.4098 30.9731C25.2499 30.9966 25.0997 31.065 24.9761 31.1706C24.8525 31.2761 24.7605 31.4146 24.7105 31.5704C24.6605 31.7261 24.6545 31.893 24.6931 32.052C24.7317 32.2111 24.8134 32.3561 24.929 32.4705L29.3372 36.8258L28.2975 42.9737C28.2704 43.1351 28.2882 43.301 28.3491 43.4526C28.41 43.6043 28.5115 43.7357 28.6422 43.8319C28.7728 43.9282 28.9274 43.9855 29.0885 43.9975C29.2496 44.0094 29.4108 43.9754 29.5538 43.8994L35.0009 40.9976L40.4488 43.9003C40.5918 43.9763 40.753 44.0103 40.9141 43.9983C41.0752 43.9864 41.2298 43.9291 41.3604 43.8328C41.4911 43.7365 41.5926 43.6052 41.6535 43.4535C41.7144 43.3019 41.7322 43.136 41.7051 42.9746L40.6654 36.8267L45.0736 32.4714C45.1892 32.3569 45.2709 32.212 45.3095 32.0529C45.3482 31.8939 45.3421 31.727 45.2921 31.5712C45.2421 31.4155 45.1501 31.277 45.0265 31.1715C44.9029 31.0659 44.7527 30.9975 44.5928 30.9739L44.5919 30.9731ZM63.1652 30.0764L69.256 30.9731L69.2568 30.9739C69.4167 30.9975 69.567 31.0659 69.6906 31.1715C69.8141 31.277 69.9061 31.4155 69.9561 31.5712C70.0062 31.727 70.0122 31.8939 69.9736 32.0529C69.935 32.212 69.8533 32.3569 69.7377 32.4714L65.3294 36.8267L66.3691 42.9746C66.3963 43.136 66.3784 43.3019 66.3175 43.4535C66.2567 43.6052 66.1551 43.7365 66.0245 43.8328C65.8938 43.9291 65.7393 43.9864 65.5782 43.9983C65.4171 44.0103 65.2559 43.9763 65.1128 43.9003L59.6649 40.9976L54.2179 43.8994C54.0748 43.9754 53.9137 44.0094 53.7526 43.9975C53.5915 43.9855 53.4369 43.9282 53.3062 43.8319C53.1756 43.7357 53.0741 43.6043 53.0132 43.4526C52.9523 43.301 52.9344 43.1351 52.9616 42.9737L54.0013 36.8258L49.593 32.4705C49.4774 32.3561 49.3957 32.2111 49.3571 32.052C49.3185 31.893 49.3246 31.7261 49.3746 31.5704C49.4246 31.4146 49.5166 31.2761 49.6402 31.1706C49.7637 31.065 49.914 30.9966 50.0739 30.9731L56.1647 30.0764L58.8921 24.4809C58.9717 24.344 59.0852 24.2305 59.2213 24.1516C59.3575 24.0727 59.5116 24.0312 59.6684 24.0312C59.8252 24.0312 59.9793 24.0727 60.1154 24.1516C60.2516 24.2305 60.3651 24.344 60.4447 24.4809L63.1652 30.0764Z" fill="url(#paint0_linear)"/>
<defs>
<linearGradient id="paint0_linear" x1="-32.5333" y1="-20.2872" x2="-32.5333" y2="66.8691" gradientUnits="userSpaceOnUse">
<stop stop-color="#29F4FF"/>
<stop offset="1" stop-color="#5257FF"/>
</linearGradient>
</defs>
</svg>
