<svg width="55" height="55" viewBox="0 0 55 55" fill="none" xmlns="http://www.w3.org/2000/svg">
<path fill-rule="evenodd" clip-rule="evenodd" d="M20.625 6.875C20.625 10.6723 23.7027 13.75 27.5 13.75C31.2973 13.75 34.375 10.6723 34.375 6.875C34.375 3.07771 31.2973 0 27.5 0C23.7027 0 20.625 3.07771 20.625 6.875ZM9.16667 25.209V43.5423H13.75V48.1256C13.75 49.3906 12.7233 50.4173 11.4583 50.4173H6.875C5.61 50.4173 4.58333 49.3906 4.58333 48.1256V36.6673H0V22.9173C0 20.385 2.05104 18.334 4.58333 18.334H11.5179C10.0627 20.2544 9.16667 22.6194 9.16667 25.209ZM32.0833 55.0007H22.9167C21.6517 55.0007 20.625 53.974 20.625 52.709V38.959H13.75V25.209C13.75 21.4117 16.8277 18.334 20.625 18.334H34.375C38.1723 18.334 41.25 21.4117 41.25 25.209V38.959H34.375V52.709C34.375 53.974 33.3483 55.0007 32.0833 55.0007ZM4.58398 11.4583C4.58398 13.9906 6.63503 16.0417 9.16732 16.0417C11.6996 16.0417 13.7507 13.9906 13.7507 11.4583C13.7507 8.92604 11.6996 6.875 9.16732 6.875C6.63503 6.875 4.58398 8.92604 4.58398 11.4583ZM45.8333 43.5423V25.209C45.8333 22.6194 44.9373 20.2544 43.4821 18.334H50.4167C52.949 18.334 55 20.385 55 22.9173V36.6673H50.4167V48.1256C50.4167 49.3906 49.39 50.4173 48.125 50.4173H43.5417C42.2767 50.4173 41.25 49.3906 41.25 48.1256V43.5423H45.8333ZM50.4167 11.4583C50.4167 13.9906 48.3656 16.0417 45.8333 16.0417C43.301 16.0417 41.25 13.9906 41.25 11.4583C41.25 8.92604 43.301 6.875 45.8333 6.875C48.3656 6.875 50.4167 8.92604 50.4167 11.4583Z" fill="url(#paint0_linear)"/>
<defs>
<linearGradient id="paint0_linear" x1="44.2177" y1="55.0007" x2="44.2177" y2="5.77168" gradientUnits="userSpaceOnUse">
<stop stop-color="#579CFF"/>
<stop offset="1" stop-color="#5CE578"/>
</linearGradient>
</defs>
</svg>
